<svg xmlns="http://www.w3.org/2000/svg" width="1440" height="820" viewBox="0 0 1440 820" role="img" aria-labelledby="title description">
  <title id="title">MemoPilot IQ deployed Alibaba Cloud architecture</title>
  <desc id="description">The user connects to a React frontend and FastAPI backend running in Alibaba Cloud ECS. The MemoPilot memory-governance layer uses Qwen Cloud, Alibaba Tablestore, and Alibaba OSS.</desc>
  <defs>
    <linearGradient id="background" x1="0" y1="0" x2="1" y2="1">
      <stop offset="0" stop-color="#f8fafc"/>
      <stop offset="1" stop-color="#eef2ff"/>
    </linearGradient>
    <linearGradient id="ecs" x1="0" y1="0" x2="1" y2="1">
      <stop offset="0" stop-color="#f8fbff"/>
      <stop offset="1" stop-color="#eff6ff"/>
    </linearGradient>
    <marker id="arrow" markerWidth="10" markerHeight="10" refX="8" refY="3" orient="auto" markerUnits="strokeWidth">
      <path d="M0,0 L8,3 L0,6 z" fill="#64748b"/>
    </marker>
    <style>
      .title{font:700 26px Inter,Segoe UI,Arial,sans-serif;fill:#0f172a}.subtitle{font:14px Inter,Segoe UI,Arial,sans-serif;fill:#475569}.cluster{font:700 16px Inter,Segoe UI,Arial,sans-serif;fill:#1e3a8a}.heading{font:700 15px Inter,Segoe UI,Arial,sans-serif;fill:#0f172a}.body{font:13px Inter,Segoe UI,Arial,sans-serif;fill:#334155}.note{font:12px Inter,Segoe UI,Arial,sans-serif;fill:#475569}.edge{stroke:#64748b;stroke-width:2;fill:none;marker-end:url(#arrow)}.label{font:12px Inter,Segoe UI,Arial,sans-serif;fill:#475569}.box{stroke-width:1.5}.subbox{stroke-width:1.2}
    </style>
  </defs>

  <rect width="1440" height="820" fill="url(#background)"/>
  <text x="48" y="54" class="title">MemoPilot IQ — Deployed Alibaba Cloud Architecture</text>
  <text x="48" y="81" class="subtitle">Track 1: MemoryAgent · transparent cross-session memory with governed recall</text>

  <rect x="48" y="344" width="142" height="104" rx="18" fill="#ffffff" stroke="#94a3b8" class="box"/>
  <text x="119" y="385" class="heading" text-anchor="middle">User</text>
  <text x="119" y="411" class="body" text-anchor="middle">developer / student</text>

  <rect x="238" y="116" width="720" height="590" rx="24" fill="url(#ecs)" stroke="#60a5fa" stroke-width="1.8"/>
  <text x="272" y="157" class="cluster">Alibaba Cloud ECS</text>
  <text x="272" y="181" class="note">Docker: frontend (Nginx) + FastAPI backend</text>

  <rect x="274" y="330" width="188" height="116" rx="16" fill="#dbeafe" stroke="#60a5fa" class="box"/>
  <text x="368" y="371" class="heading" text-anchor="middle">React + Vite</text>
  <text x="368" y="394" class="body" text-anchor="middle">frontend served by Nginx</text>
  <text x="368" y="416" class="note" text-anchor="middle">Chat · Trace · Controls</text>

  <rect x="510" y="330" width="176" height="116" rx="16" fill="#dbeafe" stroke="#3b82f6" class="box"/>
  <text x="598" y="371" class="heading" text-anchor="middle">FastAPI</text>
  <text x="598" y="394" class="body" text-anchor="middle">REST API · /health</text>
  <text x="598" y="416" class="note" text-anchor="middle">CORS · snapshots</text>

  <rect x="730" y="222" width="190" height="360" rx="18" fill="#eef2ff" stroke="#818cf8" class="box"/>
  <text x="825" y="258" class="heading" text-anchor="middle">MemoPilot Layer</text>
  <text x="825" y="281" class="note" text-anchor="middle">memory governance</text>
  <rect x="748" y="302" width="154" height="48" rx="11" fill="#f8faff" stroke="#a5b4fc" class="subbox"/>
  <text x="825" y="332" class="body" text-anchor="middle">Extractor + Classifier</text>
  <rect x="748" y="365" width="154" height="48" rx="11" fill="#f8faff" stroke="#a5b4fc" class="subbox"/>
  <text x="825" y="395" class="body" text-anchor="middle">Retriever + Scorer</text>
  <rect x="748" y="428" width="154" height="48" rx="11" fill="#f8faff" stroke="#a5b4fc" class="subbox"/>
  <text x="825" y="458" class="body" text-anchor="middle">Budget + Trace</text>
  <rect x="748" y="491" width="154" height="62" rx="11" fill="#f8faff" stroke="#a5b4fc" class="subbox"/>
  <text x="825" y="518" class="body" text-anchor="middle">Forgetting +</text>
  <text x="825" y="538" class="body" text-anchor="middle">Supersession + Controls</text>

  <rect x="1035" y="150" width="350" height="132" rx="18" fill="#fff7ed" stroke="#fb923c" class="box"/>
  <text x="1210" y="193" class="heading" text-anchor="middle">Qwen Cloud / DashScope</text>
  <text x="1210" y="220" class="body" text-anchor="middle">qwen3.7-max · JSON memory extraction</text>
  <text x="1210" y="243" class="body" text-anchor="middle">text-embedding-v3</text>

  <rect x="1035" y="350" width="350" height="126" rx="18" fill="#fffbeb" stroke="#fbbf24" class="box"/>
  <text x="1210" y="393" class="heading" text-anchor="middle">Alibaba Tablestore</text>
  <text x="1210" y="420" class="body" text-anchor="middle">persistent memories + audit events</text>
  <text x="1210" y="443" class="note" text-anchor="middle">tenant/project range reads</text>

  <rect x="1035" y="544" width="350" height="126" rx="18" fill="#fffbeb" stroke="#fbbf24" class="box"/>
  <text x="1210" y="587" class="heading" text-anchor="middle">Alibaba OSS</text>
  <text x="1210" y="614" class="body" text-anchor="middle">redacted turn snapshots</text>
  <text x="1210" y="637" class="note" text-anchor="middle">evaluation reports</text>

  <path d="M190 396 H274" class="edge"/>
  <text x="224" y="377" class="label" text-anchor="middle">public web</text>
  <path d="M462 388 H510" class="edge"/>
  <text x="486" y="370" class="label" text-anchor="middle">/api</text>
  <path d="M686 388 H730" class="edge"/>
  <path d="M920 300 C970 260 980 220 1035 220" class="edge"/>
  <text x="978" y="243" class="label" text-anchor="middle">Qwen calls</text>
  <path d="M920 405 H1035" class="edge"/>
  <text x="978" y="387" class="label" text-anchor="middle">read / write</text>
  <path d="M686 446 C815 610 900 606 1035 606" class="edge"/>
  <text x="875" y="632" class="label" text-anchor="middle">redacted snapshots</text>

  <text x="48" y="766" class="subtitle">Every displayed memory decision is traceable: retrieve → score → budget → inject or skip → explain.</text>
  <text x="48" y="792" class="note">Submitted deployment uses Alibaba Cloud ECS, Qwen Cloud, Tablestore, and OSS. No local-storage component is part of this architecture.</text>
</svg>
